<?xml version="1.0" encoding="UTF-8" standalone="no"?> <svg xmlns:inkscape="http://www.inkscape.org/namespaces/inkscape" xmlns:sodipodi="http://sodipodi.sourceforge.net/DTD/sodipodi-0.dtd" xmlns="http://www.w3.org/2000/svg" xmlns:svg="http://www.w3.org/2000/svg" width="946.22534" height="188.87769" viewBox="0 0 946.22534 188.87769" version="1.1" id="svg1786" inkscape:version="1.1.2 (0a00cf5339, 2022-02-04)" sodipodi:docname="name-and-logo-text.svg" inkscape:export-filename="/home/samuel/code/pydantic-brand/social-with-strap.png" inkscape:export-xdpi="96" inkscape:export-ydpi="96"><defs id="defs1783"><path id="a" d="m 0.06,0.5 h 272 v 190 h -272 z"></path></defs><g inkscape:label="Layer 1" inkscape:groupmode="layer" id="layer1" transform="translate(-279.42791,-237.75209)"><g aria-label="Pydantic" id="text1957" style="font-weight:500;font-size:171.388px;line-height:1.25;font-family:'IBM Plex Sans';-inkscape-font-specification:'IBM Plex Sans, Medium';stroke-width:4.2847"><path d="M 559.9829,384.44653 V 264.81771 h 51.4164 q 16.62463,0 25.7082,9.76911 9.08356,9.76912 9.08356,26.22237 0,16.45325 -9.08356,26.22236 -9.08357,9.76912 -25.7082,9.76912 h -32.04956 v 47.64586 z m 19.36684,-64.61327 h 30.84984 q 7.36969,0 11.483,-3.77054 4.11331,-3.94192 4.11331,-11.14022 v -8.22662 q 0,-7.1983 -4.11331,-10.96884 -4.11331,-3.94192 -11.483,-3.94192 h -30.84984 z" id="path1214"></path><path d="M 720.74466,295.32477 H 738.7404 L 701.20643,402.0995 q -1.5425,4.45609 -3.59915,7.54107 -1.88527,3.25637 -4.62748,5.14164 -2.57082,2.05666 -6.34135,2.9136 -3.77054,1.02832 -8.91218,1.02832 H 666.92882 V 403.4706 h 15.08215 l 5.14164,-15.08214 -32.39233,-93.06369 h 18.68129 l 17.82435,52.44473 5.14164,19.36685 h 0.85694 l 5.65581,-19.36685 z" id="path1216"></path><path d="m 809.18076,369.70717 h -0.85694 q -2.9136,7.88384 -9.59773,12.33993 -6.51275,4.45609 -15.42492,4.45609 -16.96741,0 -26.22237,-12.16855 -9.25495,-12.33993 -9.25495,-34.44899 0,-22.10905 9.25495,-34.2776 9.25496,-12.33993 26.22237,-12.33993 8.91217,0 15.42492,4.45608 6.68413,4.2847 9.59773,12.33994 h 0.85694 v -52.44473 h 18.68129 v 126.82712 h -18.68129 z m -20.22379,0.68555 q 8.5694,0 14.39659,-4.11331 5.8272,-4.2847 5.8272,-11.14022 v -30.50707 q 0,-6.85552 -5.8272,-10.96883 -5.82719,-4.2847 -14.39659,-4.2847 -9.76911,0 -15.59631,6.34136 -5.82719,6.16996 -5.82719,16.45324 v 15.42492 q 0,10.28328 5.82719,16.62464 5.8272,6.16997 15.59631,6.16997 z" id="path1218"></path><path d="m 919.89726,384.44653 q -7.36969,0 -11.31161,-4.11331 -3.94193,-4.2847 -4.79887,-10.79744 h -0.85694 q -2.57082,8.39801 -9.42634,12.68271 -6.85552,4.2847 -16.62463,4.2847 -13.88243,0 -21.4235,-7.1983 -7.36969,-7.19829 -7.36969,-19.36684 0,-13.36826 9.59773,-20.0524 9.76912,-6.68413 28.45041,-6.68413 h 16.11047 v -7.54107 q 0,-8.22662 -4.45609,-12.68271 -4.45608,-4.45609 -13.88242,-4.45609 -7.88385,0 -12.8541,3.42776 -4.97026,3.42776 -8.39802,8.74079 l -11.14022,-10.1119 q 4.45609,-7.54107 12.51133,-12.33993 8.05523,-4.97025 21.08072,-4.97025 17.31019,0 26.56514,8.05523 9.25495,8.05524 9.25495,23.13738 V 369.193 h 9.42634 v 15.25353 z M 882.1919,372.27799 q 8.74078,0 14.39659,-3.77054 5.6558,-3.94192 5.6558,-10.45467 v -12.8541 H 886.4766 q -19.36685,0 -19.36685,11.99716 v 3.08499 q 0,5.99858 3.94193,9.08356 4.11331,2.9136 11.14022,2.9136 z" id="path1220"></path><path d="m 948.69041,384.44653 v -89.12176 h 18.68129 v 14.73937 h 0.85694 q 2.9136,-7.1983 8.74079,-11.99716 5.99858,-4.79886 16.28186,-4.79886 13.71101,0 21.25211,9.08356 7.7125,8.91218 7.7125,25.53681 v 56.55804 h -18.6813 v -54.1586 q 0,-20.90934 -16.79606,-20.90934 -3.59914,0 -7.19829,1.02833 -3.42776,0.85694 -6.16997,2.74221 -2.74221,1.88526 -4.45609,4.79886 -1.54249,2.9136 -1.54249,6.85552 v 59.64302 z" id="path1222"></path><path d="m 1072.7753,384.44653 q -9.7691,0 -14.7394,-4.97025 -4.9702,-5.14164 -4.9702,-14.39659 V 310.5783 h -13.8824 v -15.25353 h 7.541 q 4.6275,0 6.3414,-2.05665 1.8853,-2.05666 1.8853,-6.68414 v -15.5963 h 16.796 v 24.33709 h 18.6813 v 15.25353 h -18.6813 v 58.6147 h 17.3102 v 15.25353 z" id="path1224"></path><path d="m 1120.0784,279.38569 q -5.8272,0 -8.5694,-2.74221 -2.5709,-2.74221 -2.5709,-7.02691 v -2.91359 q 0,-4.2847 2.5709,-7.02691 2.7422,-2.74221 8.5694,-2.74221 5.8271,0 8.398,2.74221 2.5708,2.74221 2.5708,7.02691 v 2.91359 q 0,4.2847 -2.5708,7.02691 -2.5709,2.74221 -8.398,2.74221 z m -9.4264,15.93908 h 18.6813 v 89.12176 h -18.6813 z" id="path1226"></path><path d="m 1190.5187,386.50319 q -9.5977,0 -17.1388,-3.25637 -7.541,-3.25637 -12.6827,-9.25495 -5.1416,-6.16997 -7.8838,-14.73937 -2.7422,-8.74079 -2.7422,-19.36685 0,-10.62605 2.7422,-19.19545 2.7422,-8.74079 7.8838,-14.73937 5.1417,-6.16997 12.6827,-9.42634 7.5411,-3.25637 17.1388,-3.25637 13.3683,0 21.9377,5.99858 8.5694,5.99858 12.5113,15.93908 l -15.4249,7.1983 q -1.8853,-6.16997 -6.6841,-9.76912 -4.6275,-3.77054 -12.34,-3.77054 -10.2833,0 -15.5963,6.51275 -5.1416,6.34136 -5.1416,16.62464 v 15.93908 q 0,10.28328 5.1416,16.79602 5.313,6.34136 15.5963,6.34136 8.2267,0 13.0255,-3.94192 4.9703,-4.11332 7.8839,-10.79745 l 14.2252,7.54107 q -4.4561,10.96884 -13.3683,16.79603 -8.9122,5.82719 -21.7663,5.82719 z" id="path1228"></path></g><path fill="#e72564" d="m 495.66897,380.43397 -38.39202,-53.23354 c 0,0 0,0 0,0 l -62.1421,-86.18247 c -3.157,-4.35448 -10.45076,-4.35448 -13.58961,0 l -62.12395,86.16432 c 0,0 0,0 0,0 l -38.41016,53.25169 c -1.56036,2.17724 -1.99581,4.95323 -1.17934,7.49334 0.83461,2.54012 2.81227,4.53592 5.35238,5.37053 l 100.53411,32.91263 c 0,0 0,0 0.0182,0.002 0.83461,0.27216 1.7055,0.41731 2.59454,0.41731 0.88904,0 1.75994,-0.14515 2.59455,-0.41731 0,0 0,0 0.0181,0 l 100.53412,-32.91426 c 2.54011,-0.83461 4.53591,-2.81227 5.35238,-5.37053 0.83461,-2.54011 0.39916,-5.3161 -1.17934,-7.49334 z m -107.31985,-120.20185 40.2971,55.88252 -37.68441,-12.3377 c -0.2903,-0.0907 -0.59874,-0.0726 -0.88904,-0.14515 -0.2903,-0.0726 -0.5806,-0.10886 -0.8709,-0.14515 -0.2903,-0.0363 -0.56245,-0.14515 -0.85275,-0.14515 -0.2903,0 -0.56246,0.10886 -0.85276,0.14515 -0.30844,0.0363 -0.58059,0.0726 -0.87089,0.14515 -0.2903,0.0544 -0.59874,0.0544 -0.8709,0.14515 v 0 l -37.44855,12.26513 -0.23587,0.0726 40.29711,-55.88252 z m -56.93486,78.96128 43.87141,-14.3698 4.68107,-1.52406 v 83.40648 L 301.3139,380.942 Z m 65.31724,67.49447 v -83.38833 l 48.55247,15.89386 30.10036,41.73045 z" id="path1086" style="stroke-width:1.81437"></path></g></svg> 