<svg version="1.2" xmlns="http://www.w3.org/2000/svg" viewBox="0 0 184 34" width="184" height="34">
	<title>zencoder-svg</title>
	<defs>
		<clipPath clipPathUnits="userSpaceOnUse" id="cp1">
			<path d="m0 0h184v34h-184z"/>
		</clipPath>
	</defs>
	<style>
		.s0 { fill: #ffffff } 
		.s1 { fill: #f24a07 } 
	</style>
	<g id="Clip-Path" clip-path="url(#cp1)">
		<g>
			<path class="s0" d="m46.5 20.8l8.4-6.8v-0.2h-8.2v-2.2h12.2v1.5l-8.3 6.9v0.5l8.3-0.3v2.2h-12.4v-1.6z"/>
			<path fill-rule="evenodd" class="s0" d="m64.4 17.7c0.2 1.6 1.3 3 4.7 3 2.9 0 4-0.9 4.2-1.8h2.6c-0.1 1.9-2 3.8-6.8 3.8-5.9 0-7.6-2.9-7.6-5.6 0-3.5 2.7-5.8 7.4-5.8 4.7 0 7 2.1 7 5.5v0.9zm8.9-1.8c0-1.5-1.2-2.6-4.2-2.6-2.8 0-4.2 1-4.6 2.7h8.8v-0.1z"/>
			<path class="s0" d="m79.2 11.6h2.9v3.1h0.2c0.9-2.2 2.5-3.4 6.1-3.4 4.5 0 6.2 2.2 6.2 4.8v6.3h-2.9v-5.5c0-2-1.1-3.3-4.4-3.3-2.7 0-5.2 1.3-5.2 4v4.8h-2.9v-10.8z"/>
			<path class="s0" d="m97.7 17c0-3.1 2.5-5.7 7.4-5.7 4.9 0 6.9 2.1 6.9 4.4l-2.7 0.3c0-1.3-1.1-2.5-4.1-2.5-3 0-4.6 1.6-4.6 3.5 0 1.8 1.2 3.5 4.5 3.5 3.2 0 4.2-1.2 4.2-2.4l2.7 0.2c0 2.3-1.8 4.4-7.1 4.4-5.2 0-7.2-2.9-7.2-5.7z"/>
			<path fill-rule="evenodd" class="s0" d="m115.1 17c0-2.8 2.1-5.7 7.6-5.7 5.5 0 7.7 2.9 7.7 5.7 0 2.9-2.1 5.7-7.7 5.7-5.5 0-7.6-2.8-7.6-5.7zm12.4 0c0-1.8-1.3-3.5-4.8-3.5-3.4 0-4.7 1.7-4.7 3.5 0 1.8 1.2 3.5 4.7 3.5 3.5 0 4.8-1.7 4.8-3.5z"/>
			<path fill-rule="evenodd" class="s0" d="m133.5 16.9c0-3.1 2.5-5.6 7.2-5.6 3.1 0 4.6 0.9 5.2 2.4h0.3v-5.3h2.9v14h-2.9c0-0.7 0-1.9 0.1-2.8h-0.3c-0.5 1.8-2.1 3.1-5.4 3.1-4.5 0-7.1-2.3-7.1-5.8zm12.7 0.1v-0.3c0-1.7-1.7-3.2-5.1-3.2-3.1 0-4.7 1.5-4.7 3.4 0 2.2 1.7 3.6 4.7 3.6 3.4 0 5.1-2 5.1-3.5z"/>
			<path fill-rule="evenodd" class="s0" d="m155.3 17.7c0.2 1.6 1.3 3 4.8 3 2.9 0 4-0.9 4.1-1.8h2.7c-0.2 1.9-2.1 3.8-6.8 3.8-6 0-7.7-2.9-7.7-5.6 0-3.5 2.8-5.8 7.5-5.8 4.7 0 7 2.1 7 5.5v0.9zm8.9-1.8c0-1.5-1.2-2.6-4.3-2.6-2.8 0-4.1 1-4.5 2.7h8.8v-0.1z"/>
			<path class="s0" d="m170.2 11.6h2.9l-0.1 3.3h0.3c0.7-2 2.1-3.6 5.2-3.6 3.7 0 5.1 2 5.1 5.1 0 0.8 0 1.5-0.1 1.9h-2.7c0-0.3 0.1-0.7 0.1-1.1 0-2.4-0.8-3.6-3.2-3.6-3 0-4.6 2.3-4.6 4.7v4.1h-2.9v-10.8z"/>
			<path class="s1" d="m14.6 23.4c-0.5-1.5-1.2-3.2-2.8-3.8-1.5-0.6-3.3 0.1-4.6 1-0.9 0.7-1.8 1.6-2.2 2.7q-0.2 0.5-0.3 1.1-0.1 0.6-0.1 1.2c0 2.6 1.5 5.1 3.4 6.8 1.1 0.9 2.5 1.7 4 1.6 2.3-0.2 2.8-3.1 3-4.9q0.2-1.2 0.1-2.3-0.1-1.7-0.5-3.4z"/>
			<path class="s1" d="m28.3 24q-1.1-0.5-2.3-0.8-1.7-0.4-3.4-0.5c-1.6 0-3.5 0.1-4.6 1.3-1.1 1.3-0.9 3.2-0.5 4.6 0.4 1.1 1 2.2 2 2.9q0.5 0.4 1 0.7 0.6 0.2 1.1 0.4c2.6 0.8 5.5 0.2 7.7-1.1 1.2-0.7 2.4-1.7 2.8-3.1 0.5-2.3-2.1-3.6-3.8-4.4z"/>
			<path class="s1" d="m35 11.5c-0.3-1.3-0.9-2.8-2.2-3.5-2-1.2-4.1 0.8-5.4 2.2q-0.8 0.8-1.5 1.8-0.9 1.4-1.5 3.1c-0.6 1.4-1 3.2-0.1 4.6 0.9 1.4 2.7 1.8 4.3 1.8 1.2 0 2.4-0.2 3.4-0.9q0.5-0.3 0.9-0.7 0.5-0.4 0.9-0.9c1.5-2.1 1.8-5 1.2-7.5z"/>
			<path class="s1" d="m22 12.6c1.6-0.4 2.6-2 3.1-3.5 0.4-1.1 0.5-2.3 0.2-3.4q-0.2-0.6-0.5-1.1-0.2-0.6-0.6-1.1c-1.6-2-4.3-3.2-6.9-3.5-1.4-0.1-3 0.1-4.1 1-1.8 1.5-0.5 4.1 0.4 5.7q0.6 1 1.4 1.9 1.1 1.4 2.5 2.4c1.2 1 2.8 1.9 4.5 1.6z"/>
			<path class="s1" d="m8.3 17.8q1.6-0.7 3.1-1.6c1.3-0.9 2.8-2.1 2.9-3.7 0.1-1.7-1.1-3.1-2.4-4-1-0.7-2.1-1.1-3.3-1.2q-0.6-0.1-1.2 0.1-0.6 0-1.2 0.2c-2.5 0.9-4.5 3-5.6 5.3-0.5 1.3-0.9 2.8-0.3 4.2 0.9 2.1 3.8 1.6 5.7 1.3q1.2-0.2 2.3-0.6z"/>
		</g>
	</g>
</svg>