<?xml version="1.0" standalone="no"?>
<!DOCTYPE svg PUBLIC "-//W3C//DTD SVG 20010904//EN"
 "http://www.w3.org/TR/2001/REC-SVG-20010904/DTD/svg10.dtd">
<svg version="1.0" xmlns="http://www.w3.org/2000/svg"
 width="201.000000pt" height="201.000000pt" viewBox="0 0 201.000000 201.000000"
 preserveAspectRatio="xMidYMid meet">
<metadata>
Created by potrace 1.14, written by Peter Selinger 2001-2017
</metadata>
<g transform="translate(0.000000,201.000000) scale(0.100000,-0.100000)"
fill="#000000" stroke="none">
<path d="M848 1890 c-58 -10 -138 -35 -195 -61 -24 -10 -46 -19 -49 -19 -18 0
-176 -115 -226 -164 -118 -116 -207 -274 -247 -436 -29 -119 -13 -181 56 -214
45 -21 80 -20 126 4 42 23 48 14 13 -19 -30 -28 -103 -39 -144 -22 -15 6 -35
24 -45 39 -17 28 -19 25 -19 -33 -2 -108 37 -265 92 -377 127 -257 382 -445
660 -486 60 -8 224 -8 280 0 323 51 604 291 704 603 34 105 36 121 43 250 5
99 3 115 -15 151 -44 87 -160 92 -212 9 -7 -10 -14 -60 -16 -110 -7 -161 -18
-214 -66 -310 -160 -324 -554 -451 -878 -284 -198 102 -327 297 -346 524 -3
39 -8 76 -10 84 -2 7 0 19 5 25 5 6 19 49 31 96 35 137 81 222 169 310 129
129 280 189 463 185 99 -3 112 -5 192 -31 189 -62 360 -243 407 -431 14 -58
24 -66 33 -29 8 31 68 68 116 72 40 2 98 -28 120 -64 24 -37 -5 79 -47 188
-56 148 -192 316 -332 410 -83 55 -197 105 -297 128 -87 20 -283 27 -366 12z
m361 -35 c181 -44 361 -157 484 -305 56 -68 133 -212 155 -292 l10 -36 -37 12
c-43 16 -118 1 -151 -29 -24 -22 -20 -26 -53 54 -103 242 -343 403 -601 402
-190 -1 -338 -59 -465 -181 -98 -95 -150 -189 -186 -335 -20 -85 -37 -113 -78
-130 -70 -29 -144 20 -149 101 -2 27 21 118 48 190 93 248 298 446 549 529 36
12 102 27 175 39 47 8 235 -4 299 -19z m629 -791 c2 -11 -4 -26 -12 -33 -12
-10 -19 -8 -36 9 -17 17 -19 24 -9 36 17 21 53 13 57 -12z m-538 -819 c4 3 10
-2 14 -10 3 -8 1 -17 -5 -21 -6 -3 -8 -12 -5 -20 8 -21 -24 -31 -35 -11 -8 14
-14 14 -48 2 -35 -12 -40 -12 -44 4 -7 29 36 143 58 151 17 6 23 0 38 -46 10
-30 22 -52 27 -49z m-474 70 c22 -34 7 -68 -42 -97 l-37 -22 31 -10 c22 -8 29
-15 23 -24 -7 -12 -18 -11 -64 4 -63 20 -66 36 -9 60 36 15 72 42 72 53 0 3
-4 12 -9 19 -7 12 -12 12 -29 1 -30 -19 -50 1 -27 25 25 25 72 20 91 -9z m140
-19 c15 -11 19 -26 19 -69 0 -67 -22 -97 -71 -97 -47 0 -69 35 -60 98 9 71 62
104 112 68z m148 -2 c23 -23 19 -63 -10 -101 l-25 -33 33 2 c37 3 49 -23 13
-28 -55 -8 -99 -8 -101 1 -2 6 12 28 31 50 19 22 35 49 35 61 0 28 -28 40 -38
16 -4 -9 -15 -18 -25 -18 -14 -2 -16 3 -11 20 13 44 67 61 98 30z"/>
<path d="M897 1823 c-23 -6 -16 -28 9 -28 15 0 20 -8 22 -35 4 -59 12 -80 28
-80 13 0 15 10 11 60 -5 58 -5 60 19 60 15 0 24 6 24 15 0 11 -11 15 -47 14
-27 -1 -56 -3 -66 -6z"/>
<path d="M1037 1823 c-12 -11 -8 -118 5 -131 14 -14 67 -16 86 -4 9 6 31 95
32 130 0 9 -40 -1 -41 -10 -4 -66 -7 -80 -17 -90 -6 -6 -18 -8 -26 -5 -13 5
-15 17 -11 62 5 43 3 55 -8 55 -7 0 -17 -3 -20 -7z"/>
<path d="M773 1800 c-21 -9 -21 -10 -7 -71 17 -74 20 -80 39 -73 10 4 13 14 9
31 -6 23 -5 24 15 11 11 -7 21 -16 21 -20 0 -10 34 -11 43 -2 3 4 -5 15 -18
26 -20 16 -23 22 -14 42 23 51 -25 81 -88 56z m57 -35 c0 -8 -4 -15 -10 -15
-5 0 -13 -1 -17 -2 -3 -2 -7 5 -9 15 -1 11 4 17 17 17 10 0 19 -7 19 -15z"/>
<path d="M1213 1790 c-71 -29 -45 -140 33 -140 35 0 47 8 63 37 12 25 9 28
-36 38 -26 5 -33 3 -33 -9 0 -9 7 -16 15 -16 8 0 15 -4 15 -10 0 -15 -37 -12
-54 5 -16 17 -12 43 11 62 15 12 43 7 54 -10 4 -6 15 -7 25 -3 17 7 17 10 -9
32 -30 25 -48 28 -84 14z"/>
<path d="M626 1738 c-55 -47 -26 -132 44 -130 19 0 43 10 56 23 69 65 -28 169
-100 107z m80 -36 c17 -26 0 -62 -29 -62 -47 0 -64 47 -26 74 24 17 40 13 55
-12z"/>
<path d="M1389 1717 c-68 -52 -98 -81 -93 -89 4 -5 17 -7 30 -4 27 7 68 -10
59 -24 -6 -9 19 -36 73 -78 24 -18 36 -22 44 -14 8 8 5 16 -13 30 l-23 20 37
45 c30 37 34 47 23 56 -11 10 -23 0 -61 -46 l-47 -57 7 64 c3 36 7 74 8 85 2
23 -21 30 -44 12z m5 -61 c-3 -9 -10 -13 -16 -10 -5 3 -4 12 3 20 15 18 22 13
13 -10z"/>
<path d="M487 1644 l-29 -25 44 -54 c47 -59 47 -59 68 -45 12 7 12 12 -4 29
-18 19 -18 21 2 46 17 22 19 31 10 51 -15 32 -54 31 -91 -2z m58 -14 c4 -6 1
-18 -6 -26 -11 -14 -13 -14 -21 0 -15 26 12 51 27 26z"/>
<path d="M200 1132 c-33 -11 -39 -46 -11 -62 34 -18 68 10 55 44 -7 18 -24 25
-44 18z"/>
<path d="M1223 260 c-10 -37 -4 -47 21 -33 12 7 12 13 1 38 l-12 30 -10 -35z"/>
<path d="M895 247 c-11 -40 -2 -80 18 -83 23 -3 39 29 35 69 -2 24 -8 33 -25
35 -17 2 -24 -3 -28 -21z"/>
<path d="M539 1128 c-3 -84 0 -200 5 -205 4 -4 15 -8 26 -10 17 -2 20 3 20 42
l0 45 40 0 c43 0 80 26 80 57 0 27 16 4 44 -65 25 -59 25 -64 11 -98 -18 -45
-19 -41 5 -47 10 -3 23 0 28 7 12 15 92 205 92 217 0 6 -12 9 -27 7 -21 -2
-29 -11 -42 -48 l-15 -45 -15 48 c-13 44 -17 47 -48 47 -22 0 -33 5 -33 14 0
31 -50 56 -111 56 -54 0 -59 -2 -60 -22z m118 -44 c8 -21 -14 -41 -42 -41 -20
0 -25 4 -25 27 0 14 2 29 5 32 10 9 57 -4 62 -18z"/>
<path d="M964 1138 c-54 -26 -75 -120 -39 -175 35 -52 133 -69 174 -29 14 15
14 17 -1 32 -12 13 -20 14 -36 5 -68 -36 -136 55 -82 109 21 21 74 27 85 9 7
-10 45 16 45 31 0 25 -105 38 -146 18z"/>
<path d="M1148 1050 c-25 -26 -29 -36 -24 -63 14 -75 104 -100 153 -42 26 29
26 64 2 103 -26 42 -90 43 -131 2z m91 -37 c12 -23 -4 -53 -29 -53 -25 0 -41
29 -29 52 12 23 45 23 58 1z"/>
<path d="M1322 997 c3 -74 5 -80 25 -83 20 -3 22 1 25 54 3 50 6 57 26 60 23
4 24 1 25 -70 0 -21 4 -39 8 -39 44 -7 44 -6 43 65 0 84 -11 94 -95 94 l-60 0
3 -81z"/>
</g>
</svg>
